<svg width="29" height="28" viewBox="0 0 29 28" fill="none" xmlns="http://www.w3.org/2000/svg">
<path d="M29 0H0V8.84211H1.45V25.0526C1.45 25.8343 1.75553 26.584 2.29939 27.1367C2.84325 27.6895 3.58087 28 4.35 28H24.65C25.4191 28 26.1568 27.6895 26.7006 27.1367C27.2445 26.584 27.55 25.8343 27.55 25.0526V8.84211H29V0ZM2.9 2.94737H26.1V5.89474H2.9V2.94737ZM24.65 25.0526H4.35V8.84211H24.65V25.0526ZM7.25 19.8211C7.25 19.1097 7.52804 18.4275 8.02295 17.9245C8.51785 17.4215 9.18909 17.1389 9.889 17.1389H10.0195C9.8982 16.5635 9.89353 15.9689 10.0058 15.3915C10.118 14.8141 10.3449 14.266 10.6724 13.7807C11 13.2953 11.4214 12.8829 11.911 12.5685C12.4006 12.2542 12.948 12.0445 13.52 11.9523C14.0919 11.86 14.6763 11.8872 15.2376 12.0321C15.7989 12.1771 16.3252 12.4367 16.7845 12.7952C17.2437 13.1536 17.6263 13.6035 17.9089 14.1172C18.1915 14.6309 18.3681 15.1978 18.4281 15.7832C19.1723 15.7681 19.8996 16.0098 20.4912 16.4689C21.0828 16.9281 21.5039 17.5774 21.6856 18.3111C21.8673 19.0447 21.799 19.8193 21.4918 20.5084C21.1846 21.1975 20.6566 21.7604 19.9941 22.1053H8.5115C8.12577 21.8668 7.80702 21.5314 7.58605 21.1313C7.36508 20.7312 7.24934 20.2799 7.25 19.8211Z" fill="#537FE7"/>
</svg>
