<svg width="245" height="245" viewBox="0 0 245 245" fill="none" xmlns="http://www.w3.org/2000/svg">
<path d="M28.0933 210.552H216.927V143.697M37.9443 192.366L114.456 115.864L140.528 141.936L216.927 65.5373V121.969M160.061 65.5322H216.927" stroke="#537FE7" stroke-width="4" stroke-linecap="round" stroke-linejoin="round"/>
<path d="M83.9585 63.3018H39.2052C33.057 63.3018 28.073 68.2858 28.073 74.4339V110.143C28.073 116.291 33.057 121.275 39.2052 121.275H83.9585C90.1067 121.275 95.0907 116.291 95.0907 110.143V74.4339C95.0907 68.2858 90.1067 63.3018 83.9585 63.3018Z" stroke="#537FE7" stroke-width="4" stroke-linecap="round" stroke-linejoin="round"/>
<path d="M43.702 82.626H95.0856M28.073 101.95H79.4566" stroke="#537FE7" stroke-width="4" stroke-linecap="round" stroke-linejoin="round"/>
<path d="M61.5357 53.2316C66.7226 53.2316 70.9274 49.0268 70.9274 43.8399C70.9274 38.653 66.7226 34.4482 61.5357 34.4482C56.3488 34.4482 52.144 38.653 52.144 43.8399C52.144 49.0268 56.3488 53.2316 61.5357 53.2316Z" stroke="#537FE7" stroke-width="4" stroke-linecap="round" stroke-linejoin="round"/>
</svg>
