<svg width="237" height="233" viewBox="0 0 237 233" fill="none" xmlns="http://www.w3.org/2000/svg">
<path d="M202.208 57.6355L202.233 57.6059L178.966 34.3928L166.143 21.5703L41.0962 146.617L50.0646 155.589L35.7393 169.917L49.3375 183.493L0 232.831V232.86H9.48021L54.0803 188.231L66.6819 200.835L81.0127 186.534L89.9542 195.502L215.001 70.4284L202.208 57.6355ZM66.6819 186.615L49.9865 169.917L57.0698 162.836L73.7652 179.529L66.6819 186.615ZM175.465 95.7422L161.861 82.1413L157.097 86.8841L170.722 100.482L156.717 114.49L139.642 97.412L134.902 102.179L151.977 119.23L137.248 133.962L123.647 120.358L118.877 125.098L132.507 138.699L118.503 152.707L101.427 135.629L96.6873 140.401L113.76 157.45L89.9542 181.253L55.3434 146.617L166.143 35.8176L200.754 70.4284L175.465 95.7422Z" fill="#537FE7"/>
<path d="M236.574 46.5931L230.571 52.599L218.907 40.9373L202.235 57.6084L178.966 34.3927L195.667 17.6946L183.975 6.00592L189.981 0L236.574 46.5931Z" fill="#537FE7"/>
</svg>
